<svg width="94" height="28" viewBox="0 0 94 28" fill="none" xmlns="http://www.w3.org/2000/svg">
<path d="M21.046 1.80193V26.8259H16.116V16.6599H4.93002V26.8259H1.9744e-05V1.80193H4.93002V11.8999H16.116V1.80193H21.046ZM34.0202 27.2339C32.2069 27.2339 30.6655 26.8939 29.3962 26.2139C28.1495 25.5339 27.1975 24.5933 26.5402 23.3919C25.8829 22.1906 25.5542 20.8079 25.5542 19.2439C25.5542 17.7479 25.9395 16.3993 26.7102 15.1979C27.4809 13.9966 28.5122 13.0446 29.8042 12.3419C31.0962 11.6166 32.5355 11.2539 34.1222 11.2539C36.2529 11.2539 37.9982 11.8773 39.3582 13.1239C40.7409 14.3479 41.6362 16.1273 42.0442 18.4619L30.4842 22.1339L29.4302 19.5499L37.7942 16.7279L36.8082 17.1699C36.6269 16.5806 36.2982 16.0706 35.8222 15.6399C35.3689 15.1866 34.6775 14.9599 33.7482 14.9599C33.0455 14.9599 32.4222 15.1299 31.8782 15.4699C31.3569 15.7873 30.9489 16.2519 30.6542 16.8639C30.3822 17.4533 30.2462 18.1559 30.2462 18.9719C30.2462 19.9013 30.4162 20.6833 30.7562 21.3179C31.0962 21.9299 31.5609 22.3946 32.1502 22.7119C32.7395 23.0293 33.3969 23.1879 34.1222 23.1879C34.6435 23.1879 35.1422 23.0973 35.6182 22.9159C36.1169 22.7346 36.6042 22.4966 37.0802 22.2019L39.1882 25.7379C38.3949 26.1913 37.5335 26.5539 36.6042 26.8259C35.6975 27.0979 34.8362 27.2339 34.0202 27.2339ZM45.5032 26.8259V-7.34329e-05H50.2632V26.8259H45.5032ZM54.0372 16.7279L60.7692 26.8259H55.2272L50.9092 19.4479L54.0372 16.7279ZM48.8352 22.7119L48.3592 18.1899L57.3352 11.5939L60.2252 14.1439L48.8352 22.7119ZM65.4577 5.43993H70.2177V11.8999H73.8217V15.6059H70.2177V26.8259H65.4577V15.6059H63.1457V11.8999H65.4577V5.43993ZM76.2886 19.2099C76.2886 17.6913 76.6399 16.3313 77.3426 15.1299C78.0679 13.9286 79.0766 12.9879 80.3686 12.3079C81.6606 11.6053 83.1452 11.2539 84.8226 11.2539C86.5226 11.2539 87.9959 11.6053 89.2426 12.3079C90.4892 12.9879 91.4412 13.9286 92.0986 15.1299C92.7786 16.3313 93.1186 17.6913 93.1186 19.2099C93.1186 20.7286 92.7786 22.0999 92.0986 23.3239C91.4412 24.5253 90.4892 25.4773 89.2426 26.1799C87.9959 26.8826 86.4999 27.2339 84.7546 27.2339C83.1226 27.2339 81.6606 26.9166 80.3686 26.2819C79.0992 25.6473 78.1019 24.7293 77.3766 23.5279C76.6512 22.3266 76.2886 20.8873 76.2886 19.2099ZM81.0826 19.2439C81.0826 20.0146 81.2412 20.7173 81.5586 21.3519C81.8759 21.9639 82.3066 22.4513 82.8506 22.8139C83.3946 23.1766 84.0066 23.3579 84.6866 23.3579C85.4346 23.3579 86.0806 23.1766 86.6246 22.8139C87.1686 22.4513 87.5879 21.9639 87.8826 21.3519C88.1772 20.7173 88.3246 20.0146 88.3246 19.2439C88.3246 18.4506 88.1772 17.7479 87.8826 17.1359C87.5879 16.5239 87.1686 16.0366 86.6246 15.6739C86.0806 15.3113 85.4346 15.1299 84.6866 15.1299C84.0066 15.1299 83.3946 15.3113 82.8506 15.6739C82.3066 16.0366 81.8759 16.5239 81.5586 17.1359C81.2412 17.7479 81.0826 18.4506 81.0826 19.2439Z" fill="#0D0E43"/>
</svg>
